<svg width="61" height="60" viewBox="0 0 61 60" fill="none" xmlns="http://www.w3.org/2000/svg">
<path d="M41.8437 37.315C42.6259 37.2948 43.3694 36.9699 43.9155 36.4095C44.4616 35.8491 44.7672 35.0975 44.7672 34.315C44.7672 33.5325 44.4616 32.7809 43.9155 32.2205C43.3694 31.6601 42.6259 31.3352 41.8437 31.315C41.0615 31.3352 40.318 31.6601 39.7719 32.2205C39.2258 32.7809 38.9202 33.5325 38.9202 34.315C38.9202 35.0975 39.2258 35.8491 39.7719 36.4095C40.318 36.9699 41.0615 37.2948 41.8437 37.315Z" fill="#00FFB2"/>
<path d="M55.1957 28.514C56.4867 21.482 54.3537 1.31899 51.4807 0.233995C46.9237 -1.48901 39.1117 6.709 34.9337 11.649C33.5607 11.261 32.2037 11.046 30.8857 11.046C29.5677 11.046 28.2097 11.261 26.8367 11.649C22.6567 6.709 14.8457 -1.48901 10.2877 0.233995C7.4157 1.31799 5.2817 21.482 6.5737 28.515C3.1137 33.698 0.884705 39.123 0.884705 43.39C19.4297 43.39 18.5937 60 30.8847 60C43.1757 60 42.3377 43.39 60.8847 43.39C60.8847 39.123 58.6547 33.698 55.1957 28.514V28.514ZM23.7887 30.027C26.1957 33.718 23.1007 39.433 23.1007 39.433C11.9757 40.558 10.0377 29.152 10.0377 29.152C15.7147 27.34 20.9757 25.715 23.7887 30.027ZM10.8457 3.69199C15.3577 7.65499 17.2597 12.241 17.9127 16.341C17.3257 16.783 16.7437 17.246 16.1687 17.729C15.2169 15.3472 13.7287 13.217 11.8197 11.504C11.8197 11.504 12.3347 14.471 12.2407 18.089C11.5457 17.302 10.6447 16.666 9.47071 16.459C9.47071 16.459 10.2737 20.25 9.3247 24.764C8.5847 25.684 7.8837 26.625 7.2177 27.577C6.9317 19.872 9.01371 5.25799 10.8457 3.69199V3.69199ZM1.4827 42.705C11.3457 37.132 18.2957 38.973 22.9587 42.649C22.4532 43.714 22.0219 44.8126 21.6677 45.937C21.1997 47.47 20.8777 49.124 20.9167 50.795C14.1097 42.032 1.4827 42.705 1.4827 42.705V42.705ZM29.1077 55.548C28.5037 56.2 27.5777 56.55 26.6317 56.532C25.6837 56.522 24.7197 56.162 23.9317 55.523C23.1387 54.886 22.5277 53.971 22.1567 52.928C21.4067 50.819 21.5807 48.359 22.1197 46.083C22.3921 44.9689 22.7392 43.8744 23.1587 42.807C24.8677 44.193 26.2637 45.816 27.3717 47.403C26.5207 47.583 25.7427 47.86 25.3117 48.295C24.5177 49.096 25.1307 51.083 27.2497 52.799C28.1577 53.535 29.0387 53.923 29.8317 54.099C29.7097 54.651 29.4807 55.149 29.1077 55.548V55.548ZM50.9237 3.69199C52.7537 5.25699 54.8357 19.871 54.5507 27.577C53.8799 26.6161 53.1772 25.6779 52.4437 24.764C51.4947 20.251 52.2977 16.46 52.2977 16.46C51.1237 16.667 50.2237 17.303 49.5277 18.09C49.4337 14.472 49.9497 11.505 49.9497 11.505C48.0408 13.2183 46.5523 15.3484 45.5997 17.73C45.031 17.2526 44.4501 16.7897 43.8577 16.342C44.5097 12.241 46.4117 7.65499 50.9237 3.69199V3.69199ZM37.9807 30.027C40.7937 25.714 46.0547 27.339 51.7307 29.152C51.7307 29.152 49.7927 40.558 38.6677 39.433C38.6677 39.434 35.5737 33.719 37.9807 30.027ZM39.6117 52.929C39.2427 53.972 38.6297 54.887 37.8367 55.524C37.0497 56.163 36.0867 56.523 35.1377 56.533C34.1927 56.551 33.2647 56.201 32.6627 55.549C32.2897 55.151 32.0607 54.653 31.9377 54.1C32.7307 53.924 33.6097 53.537 34.5197 52.8C36.6347 51.084 37.2517 49.097 36.4577 48.296C36.0237 47.861 35.2467 47.584 34.3967 47.404C35.5057 45.817 36.9027 44.194 38.6097 42.808C39.0257 43.877 39.3827 44.968 39.6487 46.084C40.1877 48.359 40.3637 50.819 39.6117 52.929V52.929ZM40.8517 50.796C40.8907 49.124 40.5687 47.471 40.1017 45.938C39.7475 44.8136 39.3162 43.715 38.8107 42.65C43.4727 38.973 50.4237 37.132 60.2877 42.706C60.2867 42.705 47.6577 42.032 40.8517 50.796" fill="#FFC700"/>
<path d="M19.9247 37.315C20.7204 37.315 21.4834 36.9989 22.046 36.4363C22.6086 35.8737 22.9247 35.1107 22.9247 34.315C22.9247 33.5194 22.6086 32.7563 22.046 32.1937C21.4834 31.6311 20.7204 31.315 19.9247 31.315C19.1291 31.315 18.366 31.6311 17.8034 32.1937C17.2408 32.7563 16.9247 33.5194 16.9247 34.315C16.9247 35.1107 17.2408 35.8737 17.8034 36.4363C18.366 36.9989 19.1291 37.315 19.9247 37.315Z" fill="#00FFB2"/>
</svg>
