<svg width="100" height="100" viewBox="0 0 200 203" fill="none" xmlns="http://www.w3.org/2000/svg">
<path d="M27.8146 28.6282L3.97351 89.7885L0 188.686L25.1656 166.564L37.0861 203L67.5497 173.071L83.4437 195.192L103.311 161.359L169.536 137.936L200 122.321L197.351 102.801C197.351 102.801 83.4437 111.91 58.2781 102.801L95.3642 89.7885C107.778 85.2148 115.232 114.513 128.477 79.3782L62.2517 68.9679L67.5497 0L27.8146 28.6282Z" fill="#FF8B00"/>
<path d="M120.53 71.5705L70.1987 63.7628L78.1457 35.1346L95.3642 15.6154L127.152 0L117.881 32.5321L120.53 71.5705Z" fill="#FF8B00"/>
<path d="M197 103L145.666 95.819L128.477 79.3782L113.871 98.6247L99.2823 108.262L153.588 109.532L197 103Z" fill="#FF8B00"/>
</svg>
